<?xml version="1.0" encoding="UTF-8"?>
<svg version="1.1" xmlns="http://www.w3.org/2000/svg" width="1108" height="1107">
<path d="M0 0 C365.64 0 731.28 0 1108 0 C1108 365.31 1108 730.62 1108 1107 C742.36 1107 376.72 1107 0 1107 C0 741.69 0 376.38 0 0 Z " fill="#FEFEFE" transform="translate(0,0)"/>
<path d="M0 0 C0.71784668 0.30921387 1.43569336 0.61842773 2.17529297 0.93701172 C18.39212467 7.93074881 34.67273887 15.18829383 48 27 C48.77601563 27.62261719 49.55203125 28.24523437 50.3515625 28.88671875 C67.81442865 43.28336258 70.7216758 66.20729203 72.80783081 87.47076416 C74.33922843 104.53884945 74.39571836 121.5955402 74.37755966 138.7184906 C74.37497232 141.27737827 74.37562079 143.83625297 74.37637329 146.3951416 C74.36950095 166.56731029 74.15663784 186.65535385 72.1875 206.75 C72.06347809 208.01825623 72.06347809 208.01825623 71.93695068 209.31213379 C70.8854643 219.65444603 69.26616776 229.86405393 67.35690308 240.07995605 C66.82897744 242.92005604 66.32949113 245.76516988 65.82421875 248.609375 C60.39573287 278.2909349 52.69413133 320.38435578 26 339 C14.35979069 345.97488732 1.3660443 346.52560309 -11.7890625 344.3828125 C-21.12762152 341.95693395 -29.59335254 337.63643122 -38 333 C-38.61987793 332.65839844 -39.23975586 332.31679688 -39.87841797 331.96484375 C-53.44242488 324.3767899 -66.6372384 315.30471751 -78.17578125 304.87890625 C-80.0753675 303.71841896 -80.0753675 303.71841896 -82.578125 304.69921875 C-85.66760069 306.35856618 -87.61026223 308.43540337 -90 311 C-91.95738879 313.05913424 -93.94375874 315.03514724 -96 317 C-96.66 317 -97.32 317 -98 317 C-98.21785156 317.56847656 -98.43570313 318.13695312 -98.66015625 318.72265625 C-101.77143281 324.01091932 -108.0689272 327.43815349 -113 331 C-113.73057617 331.52899902 -114.46115234 332.05799805 -115.21386719 332.60302734 C-124.66915156 339.39364066 -134.12335599 345.48208623 -144.6796875 350.4140625 C-147.91519842 351.88421416 -147.91519842 351.88421416 -150.4609375 353.53125 C-153.74139596 355.42886905 -157.1802124 356.64991659 -160.75 357.875 C-161.49805908 358.1325708 -162.24611816 358.3901416 -163.0168457 358.65551758 C-165.34131194 359.44705835 -167.67007929 360.22468086 -170 361 C-170.69206543 361.23541504 -171.38413086 361.47083008 -172.09716797 361.71337891 C-210.87344409 374.76353697 -258.91128502 372.77908789 -295.75146484 354.85058594 C-298.25433056 353.58996227 -300.73081931 352.28673666 -303.1965332 350.95507812 C-305.16372573 349.91329429 -307.15657011 348.93486983 -309.15625 347.95703125 C-314.15255451 345.46942226 -318.51219244 342.30379025 -323 339 C-324.00160156 338.27941406 -325.00320313 337.55882812 -326.03515625 336.81640625 C-334.83759793 330.30281332 -342.45996819 322.92402669 -350 315 C-350.67675781 314.30390625 -351.35351562 313.6078125 -352.05078125 312.890625 C-367.86063599 295.8356027 -379.49762288 273.18547933 -386 251 C-386.22768066 250.2373584 -386.45536133 249.4747168 -386.68994141 248.68896484 C-387.39906689 246.27754507 -388.08080444 243.86028818 -388.75 241.4375 C-388.94907959 240.73077148 -389.14815918 240.02404297 -389.35327148 239.29589844 C-393.3613604 223.96568975 -393.44222634 208.23534779 -393.4375 192.5 C-393.43860275 190.90128052 -393.43860275 190.90128052 -393.43972778 189.27026367 C-393.41116789 173.51704278 -392.54108435 159.16149933 -388 144 C-387.4706185 142.03249309 -386.94605128 140.06368586 -386.42578125 138.09375 C-382.76659905 124.58758829 -378.05111736 111.52797949 -372.96679688 98.5 C-372.09198561 96.23786179 -371.2526082 93.96608249 -370.421875 91.6875 C-369.12623218 88.32737136 -367.62428183 85.20916059 -366 82 C-365.24723754 80.07154493 -364.51894117 78.13340112 -363.8125 76.1875 C-359.29968055 64.29743679 -353.52049187 52.96372905 -347.80078125 41.61816406 C-343.90552524 33.87032916 -340.41262663 25.97055893 -337 18 C-405.3631361 11.69608589 -472.7983263 11.42187232 -539 32 C-545.49512052 34.00462004 -551.99244579 36.00092084 -558.5 37.96484375 C-559.5725 38.29033203 -560.645 38.61582031 -561.75 38.95117188 C-563.91558411 39.60839542 -566.08225562 40.26204661 -568.25 40.91210938 C-575.98210578 43.26798536 -583.48450867 46.03084056 -591 49 C-593.17140607 49.83715482 -595.34328546 50.67308293 -597.515625 51.5078125 C-614.23383869 57.98724392 -630.77551873 64.81568251 -647.02172852 72.41308594 C-647.99682373 72.8671582 -648.97191895 73.32123047 -649.9765625 73.7890625 C-650.85006348 74.2010791 -651.72356445 74.6130957 -652.62353516 75.03759766 C-655.94944674 76.3844996 -658.46683474 76.554222 -662 76 C-666.69681051 73.99903004 -669.90596353 71.4719824 -673.5625 67.9375 C-687.54947308 54.79168305 -700.69513737 45.46753741 -720.60546875 45.7890625 C-727.5627809 46.03563537 -734.24879943 47.40532975 -741 49 C-741.84949219 49.19867676 -742.69898438 49.39735352 -743.57421875 49.60205078 C-762.62895331 54.13808335 -780.98714963 60.3227471 -799 68 C-799.98524658 68.41822021 -800.97049316 68.83644043 -801.9855957 69.26733398 C-857.37768512 92.5572162 -857.37768512 92.5572162 -897.16796875 135.3046875 C-898.25928905 138.83995044 -898.38231097 142.20855042 -898.375 145.875 C-898.37483887 146.64803467 -898.37467773 147.42106934 -898.37451172 148.2175293 C-898.19493415 157.79468448 -896.29379349 167.09299128 -894.47851562 176.46972656 C-893.86790984 179.69846044 -893.35821972 182.93745767 -892.875 186.1875 C-892.72675781 187.16847656 -892.57851563 188.14945313 -892.42578125 189.16015625 C-892.13100593 191.12622651 -891.83677112 193.09237786 -891.54296875 195.05859375 C-891.38441406 196.07050781 -891.22585938 197.08242188 -891.0625 198.125 C-890.92972656 198.99382812 -890.79695312 199.86265625 -890.66015625 200.7578125 C-890.10019749 203.5079058 -889.41423774 206.13147391 -888.6484375 208.828125 C-886.77575165 215.57477732 -885.42634489 222.41331977 -884.04043579 229.2713623 C-880.67254745 245.85683067 -876.84865669 262.31523192 -872.8125 278.75 C-872.56074005 279.77877258 -872.3089801 280.80754517 -872.04959106 281.86749268 C-861.72882346 329.12831185 -861.72882346 329.12831185 -839 371 C-833.3000882 373.8499559 -823.85202374 372.6825356 -817.80078125 371.234375 C-803.51820299 365.70060662 -791.779046 355.59152394 -781 345 C-780.02136045 344.05934712 -779.04220539 343.11923024 -778.0625 342.1796875 C-771.87096944 336.1429452 -766.31747802 329.81248781 -761 323 C-760.50209961 322.37319336 -760.00419922 321.74638672 -759.49121094 321.10058594 C-743.97361696 301.55196333 -731.02772109 280.7302626 -726 256 C-725.71511719 254.76121094 -725.43023438 253.52242188 -725.13671875 252.24609375 C-722.78858392 241.92988054 -721.86997383 232.02508221 -721.89453125 221.4609375 C-721.88108735 219.4791557 -721.86606644 217.49738407 -721.84960938 215.515625 C-721.82673957 212.43680766 -721.81256371 209.35916547 -721.82495117 206.28027344 C-721.83378948 203.27716118 -721.80484685 200.27631444 -721.76953125 197.2734375 C-721.78176224 196.36177826 -721.79399323 195.45011902 -721.80659485 194.51083374 C-721.69542851 188.60514337 -720.37972744 185.19303102 -716.67607117 180.58413696 C-712.65760509 176.78608783 -708.79247474 176.56615865 -703.46875 176.68359375 C-698.54322326 177.3148717 -695.85405143 180.03053622 -692.6875 183.625 C-689.6254142 187.93460223 -689.83950456 191.46650565 -689.83203125 196.609375 C-689.82775116 197.47953247 -689.82347107 198.34968994 -689.81906128 199.24621582 C-689.80901537 202.08086205 -689.80901725 204.91533924 -689.8125 207.75 C-689.81343658 208.71127808 -689.81437317 209.67255615 -689.81533813 210.66296387 C-689.9480004 273.06781417 -712.56227502 319.11477048 -755 364 C-755.49193848 364.5259375 -755.98387695 365.051875 -756.49072266 365.59375 C-775.44445313 385.74003393 -798.68890715 402.25355855 -826.734375 405.421875 C-840.92743278 405.76804714 -851.8807172 401.94583171 -862.125 392.25 C-872.24735822 381.60752061 -878.93985933 368.11570368 -884.06713867 354.4465332 C-884.97352108 352.06944394 -885.94424075 349.72741719 -886.921875 347.37890625 C-889.030481 342.11612052 -890.5680379 336.79250881 -892 331.3125 C-892.23460937 330.43400391 -892.46921875 329.55550781 -892.7109375 328.65039062 C-893.20624705 326.79297982 -893.6986403 324.93478946 -894.18847656 323.07592773 C-895.09228713 319.65020291 -896.00686256 316.22743683 -896.921875 312.8046875 C-903.33346015 288.75363932 -909.35758219 264.66953353 -914.62226868 240.33891296 C-915.93318934 234.28174468 -917.27904384 228.23258086 -918.63911438 222.18626404 C-920.09895318 215.66042501 -921.35986781 209.10969389 -922.54199219 202.52734375 C-923.09331885 199.48505502 -923.66071227 196.44587037 -924.2265625 193.40625 C-935.04247923 134.82202405 -935.04247923 134.82202405 -920 112 C-902.03461952 86.4536238 -874.13330537 69.33985318 -847 55 C-846.17435547 54.56187988 -845.34871094 54.12375977 -844.49804688 53.67236328 C-824.78674234 43.29740257 -804.24892433 34.68760683 -783 28 C-781.89398437 27.60683594 -780.78796875 27.21367187 -779.6484375 26.80859375 C-750.72578775 16.57985177 -715.80842231 7.41492795 -686 19 C-680.92793435 21.44136058 -676.46802898 24.60079364 -672 28 C-671.12730469 28.64710938 -670.25460937 29.29421875 -669.35546875 29.9609375 C-666.58344394 32.06638918 -663.87712172 34.20535991 -661.296875 36.54296875 C-658.37139823 39.22301476 -658.37139823 39.22301476 -654.64697266 40.28564453 C-651.52486377 39.94872631 -649.64639852 39.00766262 -646.8984375 37.4921875 C-638.40203377 33.066166 -629.52589553 29.64568302 -620.625 26.125 C-619.29406815 25.59608658 -619.29406815 25.59608658 -617.93624878 25.05648804 C-600.48328679 18.12124297 -583.07405389 11.2363166 -564.98046875 6.140625 C-561.09992314 5.04560559 -557.27253782 3.80800046 -553.4375 2.5625 C-533.20133782 -3.88790458 -511.99559794 -8.80115436 -491 -12 C-489.68339297 -12.22539277 -488.3670027 -12.45205385 -487.05078125 -12.6796875 C-461.67627917 -16.94173473 -436.25531414 -18.28245182 -410.5625 -18.25 C-409.53613434 -18.24922455 -408.50976868 -18.2484491 -407.45230103 -18.24765015 C-385.1245749 -18.19867259 -363.29826683 -16.78953809 -341.11987305 -14.15356445 C-337.2053355 -13.68961386 -333.28936872 -13.23962542 -329.37304688 -12.79101562 C-314.93024869 -11.11061958 -300.62972888 -9.05602418 -286.33065796 -6.42233276 C-281.25627451 -5.50281629 -276.1579905 -4.72944076 -271.0625 -3.9375 C-257.85992493 -1.84745797 -244.7865378 0.55282105 -231.7487793 3.51074219 C-224.20283943 5.21081884 -216.61201191 6.63108233 -209 8 C-208.73832031 7.41476563 -208.47664062 6.82953125 -208.20703125 6.2265625 C-199.54872305 -9.74507398 -177.05662251 -20.48069182 -160.45385742 -25.54223633 C-112.73471067 -39.32995321 -43.39391382 -19.08136509 0 0 Z " fill="#FCAE42" transform="translate(951,216)"/>
<path d="M0 0 C15.5810007 -0.58327234 29.31695915 0.57371354 44.22802734 5.11474609 C45.06575684 5.35580078 45.90348633 5.59685547 46.76660156 5.84521484 C75.5266588 14.16774241 100.60762252 28.7559177 123.22802734 48.11474609 C124.18708984 48.93072266 125.14615234 49.74669922 126.13427734 50.58740234 C141.4022848 63.94690887 152.90019408 79.70273559 161.22802734 98.11474609 C161.64826172 99.01837891 162.06849609 99.92201172 162.50146484 100.85302734 C166.13635602 109.20234505 168.32183754 118.23083747 168.26025391 127.34521484 C168.25327484 128.68749146 168.25327484 128.68749146 168.24615479 130.05688477 C168.24017273 130.735979 168.23419067 131.41507324 168.22802734 132.11474609 C168.84463163 132.1138243 169.46123592 132.11290251 170.09652519 132.11195278 C185.0852059 132.08988879 200.07388164 132.07333026 215.06257439 132.06293392 C222.31092791 132.05777298 229.55927061 132.05073411 236.80761719 132.03930664 C243.12371011 132.02935366 249.43979519 132.0228912 255.75589573 132.0206576 C259.10162585 132.01935154 262.44733354 132.01627227 265.79305649 132.00901604 C269.52383528 132.00180098 273.25456697 132.00075535 276.98535156 132.0012207 C278.10024963 131.99762543 279.21514771 131.99403015 280.36383057 131.99032593 C281.88250229 131.99238792 281.88250229 131.99238792 283.43185425 131.99449158 C284.31493193 131.99356978 285.19800961 131.99264799 286.10784721 131.99169827 C288.22802734 132.11474609 288.22802734 132.11474609 290.22802734 133.11474609 C290.22802734 142.68474609 290.22802734 152.25474609 290.22802734 162.11474609 C287.71093783 163.37329085 286.02374251 163.2255378 283.20648193 163.20567322 C282.143806 163.20101044 281.08113007 163.19634766 279.98625183 163.19154358 C278.81532486 163.18158859 277.64439789 163.17163361 276.43798828 163.16137695 C273.88938554 163.14859965 271.3407811 163.13615937 268.79217529 163.12400818 C267.42147573 163.1160121 266.05077616 163.10801586 264.6800766 163.10001945 C260.44403464 163.07731835 256.20808164 163.07162272 251.97198486 163.07069397 C251.25722071 163.0705122 250.54245656 163.07033044 249.8060329 163.07014316 C246.85660008 163.06969321 243.90716742 163.06977559 240.95773458 163.06997859 C232.58184882 163.06971387 224.20671035 163.05298886 215.83105469 162.98803711 C209.17990383 162.93657373 202.52972047 162.92040621 195.87840295 162.94549853 C192.35854233 162.95743845 188.84074607 162.95153995 185.32115936 162.90281487 C181.39189749 162.84887875 177.4652026 162.8730287 173.53564453 162.90356445 C172.37281448 162.87539139 171.20998444 162.84721832 170.01191711 162.81819153 C166.78429004 162.88044957 164.26778817 163.02100314 161.22802734 164.11474609 C158.45431459 167.14784068 156.89449798 170.39065162 155.22802734 174.11474609 C152.70781248 177.57540879 149.96917522 180.82759722 147.22802734 184.11474609 C146.52419922 185.03900391 146.52419922 185.03900391 145.80615234 185.98193359 C136.00802385 198.48895644 120.64820696 206.3720264 105.22802734 209.11474609 C100.57135704 209.46005426 95.9572061 209.44738789 91.29052734 209.36474609 C90.09878906 209.35958984 88.90705078 209.35443359 87.67919922 209.34912109 C82.70643696 209.3044472 78.09556829 209.17206692 73.22802734 208.11474609 C67.04681447 207.51818718 63.93115349 208.99907892 58.97802734 212.30224609 C57.65510108 213.13710089 56.32956099 213.96782785 55.00146484 214.79443359 C54.35790039 215.19629883 53.71433594 215.59816406 53.05126953 216.01220703 C45.03786752 220.85801896 36.20381109 223.63530764 27.22802734 226.11474609 C26.06658203 226.47310547 24.90513672 226.83146484 23.70849609 227.20068359 C3.45525405 232.14783828 -21.44547731 228.0739553 -40.64697266 220.93896484 C-47.11757636 218.73352665 -52.88610987 218.85673698 -59.64697266 219.17724609 C-81.57793364 219.64884716 -102.78487352 214.70275606 -119.77197266 200.11474609 C-120.72910156 199.3703125 -120.72910156 199.3703125 -121.70556641 198.61083984 C-128.78399614 192.88462476 -134.80872803 185.32087768 -138.77197266 177.11474609 C-150.61868629 176.86140067 -162.39185364 177.623921 -174.20947266 178.36474609 C-175.81872116 178.46461319 -175.81872116 178.46461319 -177.46047974 178.5664978 C-216.28952679 180.99422959 -254.98023259 184.77927852 -293.65600586 188.96112061 C-301.17100334 189.76327627 -308.68879752 190.47502754 -316.21894836 191.11914062 C-321.13095183 191.54494185 -326.03885402 192.00970644 -330.94674683 192.48028564 C-333.26670595 192.69292253 -335.58837579 192.88773745 -337.91140747 193.06365967 C-350.07096426 193.46717145 -350.07096426 193.46717145 -360.58032227 198.55810547 C-362.34992845 201.35234513 -363.57178367 204.04121264 -364.77197266 207.11474609 C-376.94661376 224.3477542 -396.63730578 235.32416575 -416.77197266 240.11474609 C-418.00818359 240.47697266 -419.24439453 240.83919922 -420.51806641 241.21240234 C-424.57892979 242.23380779 -428.41641237 242.22591487 -432.58520508 242.18725586 C-442.88696305 242.15058207 -449.05705508 243.48478612 -457.21728516 249.62646484 C-476.32393429 263.79934278 -503.98844502 266.48593016 -526.88525391 263.36083984 C-535.3840887 262.04633393 -543.60431776 260.47057589 -551.85009766 258.00537109 C-561.39022327 255.40280203 -570.75565576 255.58558466 -580.58081055 255.62402344 C-597.3703783 255.6413555 -616.17192062 253.15718239 -630.58447266 243.80224609 C-638.39972508 239.66475952 -647.3162767 243.01273097 -655.33447266 245.17724609 C-657.84253195 245.82975338 -660.35169405 246.47803322 -662.86181641 247.12255859 C-663.50940918 247.28906418 -664.15700195 247.45556976 -664.82421875 247.62712097 C-671.97499163 249.44950259 -679.1820768 251.00798454 -686.39697266 252.55224609 C-699.44878326 255.35352411 -712.44721645 258.3479359 -725.43066406 261.45043945 C-752.14925156 267.8235768 -752.14925156 267.8235768 -759.08447266 264.55224609 C-763.01389194 260.98835419 -765.38982066 257.86280538 -766.11962891 252.61474609 C-766.28688901 247.72784213 -766.11191303 243.96852345 -762.77197266 240.11474609 C-762.11197266 240.11474609 -761.45197266 240.11474609 -760.77197266 240.11474609 C-760.77197266 239.45474609 -760.77197266 238.79474609 -760.77197266 238.11474609 C-755.01163146 235.40539941 -749.27517293 233.8596101 -743.08447266 232.42724609 C-742.01358398 232.17450928 -740.94269531 231.92177246 -739.83935547 231.66137695 C-729.48668868 229.23783893 -719.10263084 226.95252924 -708.71789551 224.67105103 C-700.5257597 222.87125046 -692.34547679 221.04078022 -684.19775391 219.04833984 C-683.52491364 218.88390884 -682.85207336 218.71947784 -682.15884399 218.55006409 C-679.00093162 217.7757215 -675.84575986 216.99158496 -672.69287109 216.19702148 C-671.03239746 215.78504517 -671.03239746 215.78504517 -669.33837891 215.36474609 C-668.37875244 215.12240234 -667.41912598 214.88005859 -666.43041992 214.63037109 C-663.80534741 214.12121937 -661.43823008 214.01795626 -658.77197266 214.11474609 C-659.13291016 213.03322266 -659.49384766 211.95169922 -659.86572266 210.83740234 C-665.64035838 192.24714572 -666.18474674 172.61390124 -659.77197266 154.11474609 C-659.34787109 152.87982422 -658.92376953 151.64490234 -658.48681641 150.37255859 C-651.00240585 129.78976155 -638.18107069 113.25389256 -623.18457031 97.59033203 C-621.87606117 96.22347595 -620.57934536 94.84535629 -619.28369141 93.46630859 C-612.66168344 86.595027 -605.40026167 80.80833817 -597.77197266 75.11474609 C-597.13404785 74.63247559 -596.49612305 74.15020508 -595.83886719 73.65332031 C-578.3403039 60.50228007 -558.90231325 49.99764545 -538.33447266 42.48974609 C-537.5168042 42.19052246 -536.69913574 41.89129883 -535.85668945 41.58300781 C-510.93259384 32.62026468 -485.12621317 32.8755132 -459.77197266 40.11474609 C-459.00062988 40.33404785 -458.22928711 40.55334961 -457.43457031 40.77929688 C-445.44710682 44.32219344 -434.62162869 49.98879801 -423.77197266 56.11474609 C-423.08296875 56.50065918 -422.39396484 56.88657227 -421.68408203 57.28417969 C-407.58159539 65.24537246 -395.47553787 74.97242378 -383.77197266 86.11474609 C-382.99208984 86.83017578 -382.21220703 87.54560547 -381.40869141 88.28271484 C-364.58833757 104.20677985 -349.32001095 128.36579488 -348.66259766 152.05615234 C-348.63074311 155.74396224 -348.68348582 159.42779468 -348.77197266 163.11474609 C-348.09529541 162.9986499 -347.41861816 162.88255371 -346.72143555 162.76293945 C-335.60053095 160.94861242 -324.41350541 159.83922013 -313.20947266 158.67724609 C-311.0794785 158.45430623 -308.94951453 158.23107787 -306.81958008 158.00756836 C-303.65867412 157.6759179 -300.49774697 157.34449023 -297.33668518 157.014328 C-290.79317081 156.33034166 -284.25294902 155.62233025 -277.71386719 154.8972168 C-265.56897992 153.55841779 -253.40915982 152.38651544 -241.24301147 151.259552 C-239.34673854 151.0836473 -237.45059266 150.90636595 -235.55459595 150.72750854 C-224.70128038 149.70726545 -213.87166553 148.8790171 -202.97645569 148.46810913 C-197.36811064 148.24577639 -191.84220789 147.73519671 -186.27197266 147.05224609 C-173.15978052 145.55764796 -159.94705949 145.93640777 -146.77197266 146.11474609 C-146.79291992 145.53732666 -146.81386719 144.95990723 -146.83544922 144.36499023 C-147.24296649 131.3437817 -146.80646224 119.55053553 -142.77197266 107.11474609 C-142.54123047 106.39899414 -142.31048828 105.68324219 -142.07275391 104.94580078 C-136.64714456 88.67614946 -128.28805745 72.89609905 -116.77197266 60.11474609 C-116.34384277 59.63457031 -115.91571289 59.15439453 -115.47460938 58.65966797 C-112.29171459 55.09660957 -109.07257119 51.56936515 -105.77197266 48.11474609 C-105.23701172 47.55424561 -104.70205078 46.99374512 -104.15087891 46.41625977 C-77.50152516 19.09238193 -37.94909162 1.57090656 0 0 Z " fill="#030303" transform="translate(804.77197265625,637.88525390625)"/>
<path d="M0 0 C0.71784668 0.30921387 1.43569336 0.61842773 2.17529297 0.93701172 C18.39212467 7.93074881 34.67273887 15.18829383 48 27 C48.77601563 27.62261719 49.55203125 28.24523437 50.3515625 28.88671875 C67.81442865 43.28336258 70.7216758 66.20729203 72.80783081 87.47076416 C74.33922843 104.53884945 74.39571836 121.5955402 74.37755966 138.7184906 C74.37497232 141.27737827 74.37562079 143.83625297 74.37637329 146.3951416 C74.36950095 166.56731029 74.15663784 186.65535385 72.1875 206.75 C72.06347809 208.01825623 72.06347809 208.01825623 71.93695068 209.31213379 C70.8854643 219.65444603 69.26616776 229.86405393 67.35690308 240.07995605 C66.82897744 242.92005604 66.32949113 245.76516988 65.82421875 248.609375 C60.39573287 278.2909349 52.69413133 320.38435578 26 339 C14.35979069 345.97488732 1.3660443 346.52560309 -11.7890625 344.3828125 C-21.12762152 341.95693395 -29.59335254 337.63643122 -38 333 C-38.61987793 332.65839844 -39.23975586 332.31679688 -39.87841797 331.96484375 C-57.93704363 321.86238473 -74.39376369 309.03511411 -89.65625 295.125 C-91.80692711 293.17505276 -93.98824971 291.26973871 -96.1875 289.375 C-103.61920951 282.86482247 -109.85939596 275.73856811 -116 268 C-116.81855469 266.98679687 -117.63710938 265.97359375 -118.48046875 264.9296875 C-134.89796323 244.36159538 -146.38732646 219.7144017 -152 194 C-152.18336914 193.1656543 -152.36673828 192.33130859 -152.55566406 191.47167969 C-155.1674411 179.11987456 -156.39540981 167.00347343 -156.5 154.375 C-156.51836914 153.1360498 -156.53673828 151.89709961 -156.55566406 150.62060547 C-156.5110423 144.16026671 -156.47460178 139.84271345 -152 135 C-147.86348883 131.3444785 -144.62327977 130.34541516 -139.2421875 130.6171875 C-134.06073154 131.50182632 -130.86249899 133.88783024 -127.625 138.0625 C-125.62795093 141.67255025 -124.88062286 144.34302797 -124.7890625 148.40234375 C-123.76501314 183.02979613 -115.70631337 216.26890281 -94 244 C-93.38640625 244.80566406 -92.7728125 245.61132812 -92.140625 246.44140625 C-77.53220824 265.24521542 -59.76139285 280.79829172 -40 294 C-39.38253906 294.41781738 -38.76507812 294.83563477 -38.12890625 295.26611328 C-29.05498669 301.38757839 -20.15856199 306.83498958 -10 311 C-9.17628906 311.36867188 -8.35257813 311.73734375 -7.50390625 312.1171875 C-2.11863656 314.01589413 4.06227283 314.36465367 9.3125 311.92578125 C33.25869597 293.35812539 35.07945947 242.78257655 38.68359375 214.83203125 C41.60853678 190.18241139 42.34151586 165.35830186 42.26074219 140.56176758 C42.24922717 136.99118792 42.25621988 133.42090249 42.26761723 129.85033226 C42.31922136 110.82992746 42.058151 91.92846491 38.0625 73.25 C37.90587891 72.45335937 37.74925781 71.65671875 37.58789062 70.8359375 C35.17739686 59.1195933 31.52930207 52.69194336 21.30761719 45.87060547 C8.43303115 37.75616331 -5.89307763 31.94795313 -20.13793945 26.71289062 C-21.94277298 26.02190939 -23.71298226 25.24251963 -25.48046875 24.4609375 C-29.3739912 22.84475837 -33.24521711 21.7042944 -37.3125 20.625 C-38.93636551 20.18812248 -40.56005945 19.75060676 -42.18359375 19.3125 C-42.99812012 19.09335938 -43.81264648 18.87421875 -44.65185547 18.6484375 C-46.74990024 18.06906477 -48.83022992 17.45329887 -50.91015625 16.8125 C-61.50156308 13.60286226 -72.27434534 11.43412401 -83.125 9.3125 C-84.26869049 9.08678314 -84.26869049 9.08678314 -85.43548584 8.85650635 C-100.67853611 5.86393782 -115.66299608 3.64371628 -131.25 3.6875 C-132.99410156 3.66333008 -132.99410156 3.66333008 -134.7734375 3.63867188 C-153.34791585 3.62828346 -168.01950829 10.83013694 -181.38720703 23.37890625 C-184.82232452 26.83170372 -187.93752742 30.58483591 -190.95532227 34.40454102 C-193.70769864 37.82286954 -195.66142946 40.04626251 -200 41 C-206.23162034 41.37423703 -212.0206311 40.65153339 -218.109375 39.390625 C-218.94953156 39.22390289 -219.78968811 39.05718079 -220.65530396 38.88540649 C-223.35514138 38.34796842 -226.05247416 37.79890992 -228.75 37.25 C-230.62497254 36.87551117 -232.50013662 36.50198015 -234.37548828 36.12939453 C-238.0112031 35.40620641 -241.64614885 34.6793796 -245.28027344 33.94824219 C-275.02446899 27.96604674 -304.9050921 22.85749267 -335 19 C-336.25208252 18.8364502 -337.50416504 18.67290039 -338.79418945 18.50439453 C-405.6386126 9.85928575 -474.29512491 11.88713719 -539 32 C-545.49512052 34.00462004 -551.99244579 36.00092084 -558.5 37.96484375 C-559.5725 38.29033203 -560.645 38.61582031 -561.75 38.95117188 C-563.91558411 39.60839542 -566.08225562 40.26204661 -568.25 40.91210938 C-575.98210578 43.26798536 -583.48450867 46.03084056 -591 49 C-593.17140607 49.83715482 -595.34328546 50.67308293 -597.515625 51.5078125 C-614.23383869 57.98724392 -630.77551873 64.81568251 -647.02172852 72.41308594 C-647.99682373 72.8671582 -648.97191895 73.32123047 -649.9765625 73.7890625 C-650.85006348 74.2010791 -651.72356445 74.6130957 -652.62353516 75.03759766 C-655.94944674 76.3844996 -658.46683474 76.554222 -662 76 C-666.69681051 73.99903004 -669.90596353 71.4719824 -673.5625 67.9375 C-687.54947308 54.79168305 -700.69513737 45.46753741 -720.60546875 45.7890625 C-727.5627809 46.03563537 -734.24879943 47.40532975 -741 49 C-741.84949219 49.19867676 -742.69898438 49.39735352 -743.57421875 49.60205078 C-762.62895331 54.13808335 -780.98714963 60.3227471 -799 68 C-799.98524658 68.41822021 -800.97049316 68.83644043 -801.9855957 69.26733398 C-857.37768512 92.5572162 -857.37768512 92.5572162 -897.16796875 135.3046875 C-898.25928905 138.83995044 -898.38231097 142.20855042 -898.375 145.875 C-898.37483887 146.64803467 -898.37467773 147.42106934 -898.37451172 148.2175293 C-898.19493415 157.79468448 -896.29379349 167.09299128 -894.47851562 176.46972656 C-893.86790984 179.69846044 -893.35821972 182.93745767 -892.875 186.1875 C-892.72675781 187.16847656 -892.57851563 188.14945313 -892.42578125 189.16015625 C-892.13100593 191.12622651 -891.83677112 193.09237786 -891.54296875 195.05859375 C-891.38441406 196.07050781 -891.22585938 197.08242188 -891.0625 198.125 C-890.92972656 198.99382812 -890.79695312 199.86265625 -890.66015625 200.7578125 C-890.10019749 203.5079058 -889.41423774 206.13147391 -888.6484375 208.828125 C-886.77575165 215.57477732 -885.42634489 222.41331977 -884.04043579 229.2713623 C-880.67254745 245.85683067 -876.84865669 262.31523192 -872.8125 278.75 C-872.56074005 279.77877258 -872.3089801 280.80754517 -872.04959106 281.86749268 C-861.72882346 329.12831185 -861.72882346 329.12831185 -839 371 C-833.3000882 373.8499559 -823.85202374 372.6825356 -817.80078125 371.234375 C-803.51820299 365.70060662 -791.779046 355.59152394 -781 345 C-780.02136045 344.05934712 -779.04220539 343.11923024 -778.0625 342.1796875 C-771.87096944 336.1429452 -766.31747802 329.81248781 -761 323 C-760.50209961 322.37319336 -760.00419922 321.74638672 -759.49121094 321.10058594 C-743.97361696 301.55196333 -731.02772109 280.7302626 -726 256 C-725.71511719 254.76121094 -725.43023438 253.52242188 -725.13671875 252.24609375 C-722.78858392 241.92988054 -721.86997383 232.02508221 -721.89453125 221.4609375 C-721.88108735 219.4791557 -721.86606644 217.49738407 -721.84960938 215.515625 C-721.82673957 212.43680766 -721.81256371 209.35916547 -721.82495117 206.28027344 C-721.83378948 203.27716118 -721.80484685 200.27631444 -721.76953125 197.2734375 C-721.78176224 196.36177826 -721.79399323 195.45011902 -721.80659485 194.51083374 C-721.69542851 188.60514337 -720.37972744 185.19303102 -716.67607117 180.58413696 C-712.65760509 176.78608783 -708.79247474 176.56615865 -703.46875 176.68359375 C-698.54322326 177.3148717 -695.85405143 180.03053622 -692.6875 183.625 C-689.6254142 187.93460223 -689.83950456 191.46650565 -689.83203125 196.609375 C-689.82775116 197.47953247 -689.82347107 198.34968994 -689.81906128 199.24621582 C-689.80901537 202.08086205 -689.80901725 204.91533924 -689.8125 207.75 C-689.81343658 208.71127808 -689.81437317 209.67255615 -689.81533813 210.66296387 C-689.9480004 273.06781417 -712.56227502 319.11477048 -755 364 C-755.49193848 364.5259375 -755.98387695 365.051875 -756.49072266 365.59375 C-775.44445313 385.74003393 -798.68890715 402.25355855 -826.734375 405.421875 C-840.92743278 405.76804714 -851.8807172 401.94583171 -862.125 392.25 C-872.24735822 381.60752061 -878.93985933 368.11570368 -884.06713867 354.4465332 C-884.97352108 352.06944394 -885.94424075 349.72741719 -886.921875 347.37890625 C-889.030481 342.11612052 -890.5680379 336.79250881 -892 331.3125 C-892.23460937 330.43400391 -892.46921875 329.55550781 -892.7109375 328.65039062 C-893.20624705 326.79297982 -893.6986403 324.93478946 -894.18847656 323.07592773 C-895.09228713 319.65020291 -896.00686256 316.22743683 -896.921875 312.8046875 C-903.33346015 288.75363932 -909.35758219 264.66953353 -914.62226868 240.33891296 C-915.93318934 234.28174468 -917.27904384 228.23258086 -918.63911438 222.18626404 C-920.09895318 215.66042501 -921.35986781 209.10969389 -922.54199219 202.52734375 C-923.09331885 199.48505502 -923.66071227 196.44587037 -924.2265625 193.40625 C-935.04247923 134.82202405 -935.04247923 134.82202405 -920 112 C-902.03461952 86.4536238 -874.13330537 69.33985318 -847 55 C-846.17435547 54.56187988 -845.34871094 54.12375977 -844.49804688 53.67236328 C-824.78674234 43.29740257 -804.24892433 34.68760683 -783 28 C-781.89398437 27.60683594 -780.78796875 27.21367187 -779.6484375 26.80859375 C-750.72578775 16.57985177 -715.80842231 7.41492795 -686 19 C-680.92793435 21.44136058 -676.46802898 24.60079364 -672 28 C-671.12730469 28.64710938 -670.25460937 29.29421875 -669.35546875 29.9609375 C-666.58344394 32.06638918 -663.87712172 34.20535991 -661.296875 36.54296875 C-658.37139823 39.22301476 -658.37139823 39.22301476 -654.64697266 40.28564453 C-651.52486377 39.94872631 -649.64639852 39.00766262 -646.8984375 37.4921875 C-638.40203377 33.066166 -629.52589553 29.64568302 -620.625 26.125 C-619.29406815 25.59608658 -619.29406815 25.59608658 -617.93624878 25.05648804 C-600.48328679 18.12124297 -583.07405389 11.2363166 -564.98046875 6.140625 C-561.09992314 5.04560559 -557.27253782 3.80800046 -553.4375 2.5625 C-533.20133782 -3.88790458 -511.99559794 -8.80115436 -491 -12 C-489.68339297 -12.22539277 -488.3670027 -12.45205385 -487.05078125 -12.6796875 C-461.67627917 -16.94173473 -436.25531414 -18.28245182 -410.5625 -18.25 C-409.53613434 -18.24922455 -408.50976868 -18.2484491 -407.45230103 -18.24765015 C-385.1245749 -18.19867259 -363.29826683 -16.78953809 -341.11987305 -14.15356445 C-337.2053355 -13.68961386 -333.28936872 -13.23962542 -329.37304688 -12.79101562 C-314.93024869 -11.11061958 -300.62972888 -9.05602418 -286.33065796 -6.42233276 C-281.25627451 -5.50281629 -276.1579905 -4.72944076 -271.0625 -3.9375 C-257.85992493 -1.84745797 -244.7865378 0.55282105 -231.7487793 3.51074219 C-224.20283943 5.21081884 -216.61201191 6.63108233 -209 8 C-208.73832031 7.41476563 -208.47664062 6.82953125 -208.20703125 6.2265625 C-199.54872305 -9.74507398 -177.05662251 -20.48069182 -160.45385742 -25.54223633 C-112.73471067 -39.32995321 -43.39391382 -19.08136509 0 0 Z " fill="#030202" transform="translate(951,216)"/>
<path d="M0 0 C40.55883284 -2.15422372 78.31955421 16.71720641 108.13964844 43.16064453 C121.68309839 55.47359114 136.84726846 73.52473748 138.61303711 92.52197266 C139.33710227 108.46658573 137.21720145 118.38559512 127.39355469 131.16064453 C126.66652344 132.13710938 126.66652344 132.13710938 125.92480469 133.13330078 C120.61436654 139.84510455 112.85623079 145.34388654 104.39355469 147.16064453 C101.04165489 147.37705126 97.74594332 147.34612505 94.39355469 147.16064453 C94.07902344 146.19384766 93.76449219 145.22705078 93.44042969 144.23095703 C93.0083059 142.91579769 92.57600453 141.60069669 92.14355469 140.28564453 C91.93859375 139.65400391 91.73363281 139.02236328 91.52246094 138.37158203 C85.09744174 118.90182689 76.01804534 100.64572574 65.39355469 83.16064453 C65.46574219 84.01400391 65.53792969 84.86736328 65.61230469 85.74658203 C66.27176835 94.63102305 66.55685519 103.50227074 66.64355469 112.41064453 C66.67545898 114.02398682 66.67545898 114.02398682 66.70800781 115.66992188 C66.76188182 128.25527552 64.36748057 139.06508041 55.37792969 148.21142578 C41.70799008 160.18424703 23.02601526 166.33678337 5.14355469 166.34814453 C4.14453125 166.36039063 3.14550781 166.37263672 2.11621094 166.38525391 C-9.99150162 166.40899452 -9.99150162 166.40899452 -15.60644531 164.16064453 C-17.18457031 162.30517578 -17.18457031 162.30517578 -17.85644531 159.97314453 C-18.13746094 159.07724609 -18.41847656 158.18134766 -18.70800781 157.25830078 C-19.00449219 156.23607422 -19.30097656 155.21384766 -19.60644531 154.16064453 C-20.02667969 153.00435547 -20.44691406 151.84806641 -20.87988281 150.65673828 C-28.22845912 130.2888635 -27.94339868 108.51055572 -25.60644531 87.16064453 C-41.64694776 110.06491633 -47.98856005 128.01784839 -48.60644531 156.16064453 C-68.29614531 156.88773833 -85.19360971 157.22549286 -100.60644531 143.16064453 C-111.99400846 131.36174355 -114.1120563 118.35592303 -113.87597656 102.66064453 C-113.38921354 88.75312947 -108.26932227 77.15517113 -101.60644531 65.16064453 C-100.84654297 63.75492188 -100.84654297 63.75492188 -100.07128906 62.32080078 C-82.40500831 31.1710634 -49.11316941 11.73399427 -15.60644531 2.16064453 C-10.38460022 0.78679472 -5.37784813 0.33145598 0 0 Z " fill="#FDFDFD" transform="translate(802.6064453125,668.83935546875)"/>
<path d="M0 0 C1.77490216 1.01740016 3.57108737 1.98249245 5.37841797 2.94091797 C18.72273181 10.12687636 29.83452667 19.61538428 40.75732422 30.00732422 C41.43666016 30.63380859 42.11599609 31.26029297 42.81591797 31.90576172 C55.4615369 43.90360952 64.50922806 60.88923438 65.19482422 78.38232422 C65.05952704 92.6185942 58.38340281 104.58651016 48.99560547 114.95263672 C39.44603342 124.19148517 24.82466278 131.06165083 11.50732422 131.19482422 C10.59982422 131.13294922 9.69232422 131.07107422 8.75732422 131.00732422 C8.59876953 130.21970703 8.44021484 129.43208984 8.27685547 128.62060547 C3.2710796 105.25109934 -8.2404797 88.23302825 -24.24267578 71.00732422 C-23.98873047 72.02568359 -23.73478516 73.04404297 -23.47314453 74.09326172 C-12.6497961 118.24640487 -12.6497961 118.24640487 -22.66845703 135.45654297 C-30.30547646 146.13258305 -40.70113094 149.82162898 -53.24267578 152.00732422 C-57.81611645 152.39230166 -62.34284208 152.4292668 -66.93017578 152.38232422 C-68.64817383 152.39972656 -68.64817383 152.39972656 -70.40087891 152.41748047 C-82.39656295 152.37632889 -91.72013273 149.59807541 -100.86767578 141.75732422 C-112.98452285 127.72729077 -114.27132417 112.87822555 -114.80517578 95.00732422 C-114.84845713 93.64663633 -114.89207417 92.28595907 -114.93603516 90.92529297 C-115.04154261 87.61939265 -115.14365834 84.31342423 -115.24267578 81.00732422 C-120.2486208 90.48908518 -124.23194691 99.70093401 -127.24267578 110.00732422 C-127.78601563 111.79009766 -127.78601563 111.79009766 -128.34033203 113.60888672 C-129.77396759 119.47240655 -129.70929593 125.50208806 -129.86767578 131.50732422 C-129.90634766 132.71130859 -129.94501953 133.91529297 -129.98486328 135.15576172 C-130.07852594 138.10613541 -130.16425102 141.05651278 -130.24267578 144.00732422 C-147.33911155 144.66983411 -163.73194743 143.58314454 -177.52001953 132.11279297 C-185.51585177 124.08718109 -188.6852895 113.70536644 -188.80517578 102.56982422 C-188.26344656 76.4965431 -172.492869 56.11749774 -155.24267578 38.00732422 C-154.20240234 36.87037109 -154.20240234 36.87037109 -153.14111328 35.71044922 C-142.27569484 24.21575944 -128.69739357 15.19575629 -115.24267578 7.00732422 C-114.20369141 6.37052734 -113.16470703 5.73373047 -112.09423828 5.07763672 C-102.49547615 -0.67175037 -92.6984249 -4.92864109 -82.18017578 -8.68017578 C-81.35324219 -8.97794922 -80.52630859 -9.27572266 -79.67431641 -9.58251953 C-52.973604 -18.88443043 -24.25352737 -13.97672239 0 0 Z " fill="#FDFDFD" transform="translate(360.24267578125,717.99267578125)"/>
<path d="M0 0 C0.75410156 0.13390137 1.50820313 0.26780273 2.28515625 0.40576172 C17.40812037 3.11803246 32.96019859 9.14846477 42.4296875 21.9296875 C45.42997891 27.08191206 45.94610643 32.16286123 45 38 C42.41605035 47.27985765 37.307655 53.89376116 31 61 C30.14138418 62.07981048 29.28626525 63.16242961 28.4375 64.25 C25.23336687 67.86491942 21.69403432 70.89701117 18 74 C16.68515625 75.12921875 16.68515625 75.12921875 15.34375 76.28125 C9.94930754 80.86362586 4.44438686 85.23386877 -1.25 89.4375 C-1.83370361 89.87444687 -2.41740723 90.31139374 -3.01879883 90.76158142 C-6.28161964 93.16387417 -9.51166864 95.3358994 -13.10083008 97.22216797 C-19.20047508 100.57369476 -24.60777554 103.73476643 -26.93017578 110.60083008 C-28.26085561 115.89968799 -28.86263327 121.26413012 -29.4375 126.6875 C-29.68688535 128.54580218 -29.94270745 130.40325231 -30.20507812 132.25976562 C-30.77954236 136.42402095 -31.28609974 140.59087083 -31.74874878 144.76889038 C-32.13327398 148.18347225 -32.56741194 151.59120607 -33 155 C-35.93116731 153.53441634 -36.10250458 151.60260403 -37.2421875 148.56640625 C-37.66886719 147.44169922 -38.09554687 146.31699219 -38.53515625 145.15820312 C-38.97730469 143.97162109 -39.41945313 142.78503906 -39.875 141.5625 C-40.74679624 139.25107585 -41.61918409 136.93987474 -42.4921875 134.62890625 C-42.91346924 133.50621338 -43.33475098 132.38352051 -43.76879883 131.22680664 C-45.18124098 127.52499267 -46.67164935 123.8598054 -48.20141602 120.20507812 C-49.07006223 117.80654172 -49.55989571 115.43558259 -50.0625 112.9375 C-52.56625059 106.65856297 -58.28303859 104.98540681 -64.10302734 102.46020508 C-64.9636377 102.09048584 -65.82424805 101.7207666 -66.7109375 101.33984375 C-90.01096088 91.30705733 -120.49660873 73.10153175 -131 49 C-132.88844956 42.72151835 -132.78561969 37.00770736 -130.0625 31 C-121.26903712 15.22061939 -103.94799965 7.94686832 -87.4375 2.9140625 C-59.24801708 -4.7687269 -28.63352799 -5.58451023 0 0 Z " fill="#030303" transform="translate(589,589)"/>
<path d="M0 0 C14.34957104 -0.96323639 25.10427988 4.79180077 35.84765625 14.0390625 C43.05991973 21.0921419 48.20998694 28.26776891 48.41015625 38.6640625 C48.39492737 42.66418215 48.3643202 44.01406658 46.09765625 47.4140625 C40.78164752 48.42998544 35.65116595 48.49534361 30.25 48.30078125 C12.31345511 47.8548777 -3.808814 48.18653927 -20.90234375 54.4140625 C-22.13726562 54.85492187 -23.3721875 55.29578125 -24.64453125 55.75 C-29.22161427 57.54202502 -33.41917519 59.67689781 -37.65234375 62.1640625 C-41.84790187 64.57784095 -45.0519138 65.33185182 -49.90234375 65.4140625 C-52.63006113 64.6244601 -53.50785805 64.03044641 -55.02734375 61.65625 C-57.57280513 55.13350523 -54.05050069 47.29019743 -51.40454102 41.20776367 C-43.31245311 23.69691912 -33.0680847 10.70842939 -15.140625 2.5078125 C-10.16939379 0.82874768 -5.1811144 0.54974787 0 0 Z " fill="#030303" transform="translate(383.90234375,487.5859375)"/>
<path d="M0 0 C11.81609295 8.8480696 23.34211937 22.05611425 26.875 36.8125 C27.14866439 40.17996357 27.13289096 43.44559024 26.875 46.8125 C17.1768493 51.66157535 0.95794626 45.29902777 -8.9453125 42.87890625 C-24.53667182 39.29803362 -39.54089532 39.698087 -54.93408203 44.03320312 C-60.985991 45.72210795 -67.79214039 47.5622513 -73.625 44.5 C-76.53786325 41.22302884 -76.46869261 37.56495768 -76.39453125 33.3984375 C-75.14394895 21.40009716 -67.40227078 10.82518929 -58.25 3.37109375 C-40.80525877 -9.42385432 -18.62004 -12.20520914 0 0 Z " fill="#040201" transform="translate(719.125,473.1875)"/>
<path d="M0 0 C1.27840759 -0.01805191 1.27840759 -0.01805191 2.5826416 -0.03646851 C17.5289539 -0.21698386 33.55030367 0.42665882 45.26953125 10.84375 C47.79321296 13.4578115 48.67388348 15.35277502 49.25 18.9375 C48.58855384 23.05316498 47.30474676 25.22202541 44.6875 28.4375 C39.88621145 31.63835903 35.30499541 31.13517609 29.6875 30.4375 C23.87321925 28.91051718 18.27771858 26.62693201 12.6875 24.4375 C-8.02642342 16.36071819 -30.52720925 15.39049686 -52.5 14.875 C-54.23243014 14.83170951 -55.96485214 14.78809226 -57.69726562 14.74414062 C-61.90225951 14.63816129 -66.10733857 14.53659867 -70.3125 14.4375 C-70.3125 13.7775 -70.3125 13.1175 -70.3125 12.4375 C-50.93924651 5.34468563 -50.93924651 5.34468563 -41.3125 3.4375 C-40.36697266 3.23447266 -40.36697266 3.23447266 -39.40234375 3.02734375 C-26.36498377 0.32239617 -13.26176739 0.09302176 0 0 Z " fill="#F8F8F8" transform="translate(566.3125,598.5625)"/>
<path d="M0 0 C1.67255859 0.43119141 1.67255859 0.43119141 3.37890625 0.87109375 C8.20462591 2.07619646 13.06113809 3.08574205 17.9375 4.0625 C19.20110352 4.32256836 19.20110352 4.32256836 20.49023438 4.58789062 C21.74610352 4.84022461 21.74610352 4.84022461 23.02734375 5.09765625 C23.76718506 5.24726807 24.50702637 5.39687988 25.26928711 5.55102539 C32.48069573 6.73670089 39.54543364 7.14197661 46.84765625 7.09765625 C48.19361122 7.09553383 48.19361122 7.09553383 49.5667572 7.09336853 C52.39870714 7.0878251 55.23057445 7.07528358 58.0625 7.0625 C59.99674364 7.05747767 61.93098853 7.05291606 63.86523438 7.04882812 C68.57685417 7.03787429 73.28841313 7.02064953 78 7 C73.40550469 10.06299687 69.71560609 10.14785203 64.375 10.1328125 C63.63169434 10.13376923 62.88838867 10.13472595 62.12255859 10.13571167 C60.55240799 10.13639159 58.98225456 10.13455043 57.41210938 10.13037109 C55.00905035 10.12502015 52.60617822 10.13032242 50.203125 10.13671875 C48.67708292 10.13605794 47.15104096 10.1347767 45.625 10.1328125 C44.90618652 10.13483673 44.18737305 10.13686096 43.44677734 10.13894653 C40.35606493 10.12442286 37.95578923 9.98526308 35 9 C31.61459776 8.69301138 28.22864938 8.49095405 24.8359375 8.28125 C22 8 22 8 21 7 C19.62850746 6.84107168 18.25218509 6.7230369 16.875 6.625 C12.34953802 6.17963708 9.1097186 4.8967932 5 3 C2.22111387 2.30859478 2.22111387 2.30859478 0 2 C0 1.34 0 0.68 0 0 Z " fill="#FEF1CF" transform="translate(672,577)"/>
<path d="M0 0 C1.80742676 -0.00193359 1.80742676 -0.00193359 3.65136719 -0.00390625 C16.66326105 0.14468532 29.34170647 2.06750198 42.125 4.375 C42.125 4.705 42.125 5.035 42.125 5.375 C39.02048451 5.23605852 35.91649165 5.087657 32.8125 4.9375 C31.93142578 4.89818359 31.05035156 4.85886719 30.14257812 4.81835938 C29.29501953 4.77646484 28.44746094 4.73457031 27.57421875 4.69140625 C26.40379028 4.63641968 26.40379028 4.63641968 25.2097168 4.58032227 C23.125 4.375 23.125 4.375 20.125 3.375 C18.72844541 3.28910697 17.32814223 3.25727285 15.92895508 3.26147461 C14.66798759 3.26158791 14.66798759 3.26158791 13.38154602 3.26170349 C12.47833115 3.26686478 11.57511627 3.27202606 10.64453125 3.27734375 C9.71654221 3.2787587 8.78855316 3.28017365 7.83244324 3.28163147 C4.86742942 3.28723063 1.90249101 3.29978296 -1.0625 3.3125 C-3.07226453 3.31751511 -5.08203025 3.322078 -7.09179688 3.32617188 C-12.01956032 3.33719979 -16.94726737 3.35446383 -21.875 3.375 C-21.875 3.045 -21.875 2.715 -21.875 2.375 C-14.50704805 0.42786682 -7.60651435 -0.00850127 0 0 Z " fill="#D9A14F" transform="translate(818.875,218.625)"/>
<path d="M0 0 C10.89558556 1.39170505 21.6302027 3.39699699 32.40673828 5.49755859 C36.37206756 6.26583647 40.34200172 7.00897897 44.3125 7.75 C45.60800781 7.99234375 46.90351562 8.2346875 48.23828125 8.484375 C49.60533203 8.73960937 49.60533203 8.73960937 51 9 C51 9.33 51 9.66 51 10 C44.46125475 10.23847189 38.52853446 9.33527954 32.125 8.0625 C25.09121712 6.68208353 18.14808016 5.58191085 11 5 C11 4.34 11 3.68 11 3 C10.37351562 2.95101562 9.74703125 2.90203125 9.1015625 2.8515625 C8.28429687 2.77679688 7.46703125 2.70203125 6.625 2.625 C5.40683594 2.52058594 5.40683594 2.52058594 4.1640625 2.4140625 C2 2 2 2 0 0 Z " fill="#E1A64F" transform="translate(666,242)"/>
<path d="M0 0 C16.70547464 2.09840383 33.39327077 4.20753088 50 7 C50 7.33 50 7.66 50 8 C46.85378318 7.86177801 43.70814434 7.71314916 40.5625 7.5625 C39.66466797 7.52318359 38.76683594 7.48386719 37.84179688 7.44335938 C36.98779297 7.40146484 36.13378906 7.35957031 35.25390625 7.31640625 C34.46314697 7.27974854 33.6723877 7.24309082 32.85766602 7.20532227 C31 7 31 7 30 6 C28.21230139 5.81166386 26.41903723 5.67549206 24.625 5.5625 C19.47507476 5.18193341 14.52683967 4.44672253 9.47265625 3.40234375 C5.03883824 2.68088521 2.82510143 2.44993238 -1 5 C-0.67 3.35 -0.34 1.7 0 0 Z " fill="#E1A650" transform="translate(614,234)"/>
<path d="M0 0 C0.66 0 1.32 0 2 0 C2 2.31 2 4.62 2 7 C2.66 7 3.32 7 4 7 C4.144375 8.0725 4.28875 9.145 4.4375 10.25 C4.83749442 12.91662949 5.27591924 15.41399729 6 18 C6.66 18 7.32 18 8 18 C8.2475 18.94875 8.495 19.8975 8.75 20.875 C9.90234786 24.99653613 11.57333961 28.85240532 13.29296875 32.765625 C14 35 14 35 13 38 C9.19166677 31.11258883 6.19251695 24.19722269 3.6875 16.75 C3.43339355 16.00637207 3.17928711 15.26274414 2.91748047 14.49658203 C1.33715158 9.65675767 0.48737822 5.06873351 0 0 Z " fill="#F1B761" transform="translate(563,456)"/>
<path d="M0 0 C-0.61804633 4.861462 -2.0433253 9.17085824 -3.875 13.6875 C-4.13152344 14.35072266 -4.38804687 15.01394531 -4.65234375 15.69726562 C-5.98901056 19.03221572 -7.15495663 21.72566893 -10 24 C-10.625 21.6875 -10.625 21.6875 -11 19 C-10.01 17.515 -10.01 17.515 -9 16 C-8.01 16 -7.02 16 -6 16 C-5.96261719 15.09636719 -5.92523437 14.19273437 -5.88671875 13.26171875 C-5.82097656 12.08222656 -5.75523437 10.90273438 -5.6875 9.6875 C-5.62949219 8.51574219 -5.57148437 7.34398437 -5.51171875 6.13671875 C-5 3 -5 3 -3.58203125 1.08203125 C-2 0 -2 0 0 0 Z " fill="#E9AC4E" transform="translate(977,496)"/>
<path d="M0 0 C0.66 0.33 1.32 0.66 2 1 C0.71034824 2.37562854 -0.62689293 3.70766393 -2 5 C-2.66 5 -3.32 5 -4 5 C-4 6.32 -4 7.64 -4 9 C-5.98 9 -7.96 9 -10 9 C-10.185625 9.598125 -10.37125 10.19625 -10.5625 10.8125 C-12.70764448 14.07685029 -15.38475374 14.77339859 -19 16 C-19.66 15.67 -20.32 15.34 -21 15 C-20.15236084 14.42499756 -20.15236084 14.42499756 -19.28759766 13.83837891 C-16.73186289 12.10283469 -14.17841104 10.36396097 -11.625 8.625 C-10.73554687 8.02171875 -9.84609375 7.4184375 -8.9296875 6.796875 C-7.65351562 5.92675781 -7.65351562 5.92675781 -6.3515625 5.0390625 C-5.56604004 4.50490723 -4.78051758 3.97075195 -3.97119141 3.42041016 C-1.90388115 2.01074495 -1.90388115 2.01074495 0 0 Z " fill="#FEF0CF" transform="translate(840,544)"/>
<path d="M0 0 C1.98 0 3.96 0 6 0 C2.52248025 2.3183465 -0.97293174 3.39420982 -4.9375 4.5625 C-6.06853149 4.89737427 -6.06853149 4.89737427 -7.22241211 5.23901367 C-13.45039618 7.00267303 -19.51771781 7.86261059 -26 8 C-26 7.34 -26 6.68 -26 6 C-23.36 6 -20.72 6 -18 6 C-18 5.34 -18 4.68 -18 4 C-16.95199219 3.90912109 -16.95199219 3.90912109 -15.8828125 3.81640625 C-14.97273437 3.73261719 -14.06265625 3.64882813 -13.125 3.5625 C-12.22007812 3.48128906 -11.31515625 3.40007813 -10.3828125 3.31640625 C-7.98889139 3.13010715 -7.98889139 3.13010715 -6 2 C-4.00039988 1.960008 -1.99952758 1.95653201 0 2 C0 1.34 0 0.68 0 0 Z " fill="#F2B963" transform="translate(778,575)"/>
<path d="M0 0 C5.31027254 1.46032495 9.46330032 3.98320986 14 7 C13.01 7.495 13.01 7.495 12 8 C12 8.66 12 9.32 12 10 C11.443125 9.649375 10.88625 9.29875 10.3125 8.9375 C7.45001205 7.77703191 5.95975417 8.37689386 3 9 C2.34 8.34 1.68 7.68 1 7 C1 6.34 1 5.68 1 5 C1.66 5 2.32 5 3 5 C3 4.01 3 3.02 3 2 C2.01 2 1.02 2 0 2 C0 1.34 0 0.68 0 0 Z " fill="#ECAA47" transform="translate(960,255)"/>
<path d="M0 0 C2.4375 0.375 2.4375 0.375 5 1 C5.33 1.66 5.66 2.32 6 3 C7.89533342 3.46523063 7.89533342 3.46523063 10.0625 3.625 C11.361875 3.74875 12.66125 3.8725 14 4 C13.67 6.31 13.34 8.62 13 11 C13.66 11 14.32 11 15 11 C14.67 11.66 14.34 12.32 14 13 C12.2244709 11.58922306 10.45474969 10.17113464 8.6875 8.75 C7.70136719 7.96109375 6.71523438 7.1721875 5.69921875 6.359375 C3.3981453 4.34801702 1.69394604 2.5206842 0 0 Z " fill="#E2A548" transform="translate(881,486)"/>
<path d="M0 0 C0.66 0.99 1.32 1.98 2 3 C1.34 3 0.68 3 0 3 C0.33 6.63 0.66 10.26 1 14 C0.34 14 -0.32 14 -1 14 C-1 13.34 -1 12.68 -1 12 C-1.66 12 -2.32 12 -3 12 C-3.185625 12.804375 -3.185625 12.804375 -3.375 13.625 C-4.12206016 16.4638286 -5.05303364 19.22223202 -6 22 C-6.66 22 -7.32 22 -8 22 C-6.89173288 16.82808679 -5.42491173 12.56531841 -2.953125 7.8984375 C-1.67513608 5.35293497 -0.81706053 2.72353511 0 0 Z " fill="#F5B75B" transform="translate(587,292)"/>
<path d="M0 0 C0.66 0.33 1.32 0.66 2 1 C-0.91673307 8.91862001 -4.07817595 16.52789313 -8 24 C-8.66940686 25.33195972 -9.33696886 26.66485509 -10 28 C-9.14285714 19.42857143 -9.14285714 19.42857143 -7 16 C-6.34 16 -5.68 16 -5 16 C-4.67 13.03 -4.34 10.06 -4 7 C-3.34 7 -2.68 7 -2 7 C-2 5.35 -2 3.7 -2 2 C-1.34 2 -0.68 2 0 2 C0 1.34 0 0.68 0 0 Z " fill="#FEF0D5" transform="translate(589,284)"/>
<path d="M0 0 C5.90535977 5.90535977 5.59358977 18.09602182 6 26 C5.34 25.67 4.68 25.34 4 25 C3.3671875 22.71484375 3.3671875 22.71484375 2.875 19.9375 C2.70742188 19.01839844 2.53984375 18.09929687 2.3671875 17.15234375 C2.24601563 16.44207031 2.12484375 15.73179687 2 15 C1.67 15 1.34 15 1 15 C0.67 10.05 0.34 5.1 0 0 Z " fill="#E4A84E" transform="translate(985,274)"/>
<path d="M0 0 C1.32 0.66 2.64 1.32 4 2 C3.44570313 2.85722656 2.89140625 3.71445312 2.3203125 4.59765625 C1.58808862 5.75231699 0.85634328 6.9072813 0.125 8.0625 C-0.23980469 8.62388672 -0.60460937 9.18527344 -0.98046875 9.76367188 C-3.49036018 13.75668098 -4.88985878 17.4133639 -6 22 C-6.33 22 -6.66 22 -7 22 C-7 18.37 -7 14.74 -7 11 C-5.68 10.67 -4.36 10.34 -3 10 C-3 9.01 -3 8.02 -3 7 C-2.34 7 -1.68 7 -1 7 C-0.67 4.69 -0.34 2.38 0 0 Z " fill="#E5A84C" transform="translate(650,482)"/>
<path d="M0 0 C0.33 0 0.66 0 1 0 C1.25 7.625 1.25 7.625 -1 11 C-4.2578125 11.29296875 -4.2578125 11.29296875 -8.125 11.1875 C-10.04699219 11.14689453 -10.04699219 11.14689453 -12.0078125 11.10546875 C-12.99523437 11.07066406 -13.98265625 11.03585937 -15 11 C-15 10.34 -15 9.68 -15 9 C-16.32 8.67 -17.64 8.34 -19 8 C-13.06 8 -7.12 8 -1 8 C-0.67 5.36 -0.34 2.72 0 0 Z " fill="#DBA24D" transform="translate(747,512)"/>
<path d="M0 0 C0.66 0 1.32 0 2 0 C-0.39707314 8.17824952 -4.08858772 15.46651278 -8 23 C-8.33 23 -8.66 23 -9 23 C-8.25 15.375 -8.25 15.375 -6 12 C-5.34 12 -4.68 12 -4 12 C-4 10.68 -4 9.36 -4 8 C-3.34 8 -2.68 8 -2 8 C-2 6.02 -2 4.04 -2 2 C-1.34 2 -0.68 2 0 2 C0 1.34 0 0.68 0 0 Z " fill="#FDEFCE" transform="translate(611,237)"/>
<path d="M0 0 C0.99 0.33 1.98 0.66 3 1 C3.33 12.55 3.66 24.1 4 36 C3.67 36 3.34 36 3 36 C2.04614671 28.27378838 1.67446368 20.59621323 1.39453125 12.8203125 C1.35714844 11.88445312 1.31976562 10.94859375 1.28125 9.984375 C1.25095703 9.14616211 1.22066406 8.30794922 1.18945312 7.44433594 C0.99219975 4.89936067 0.54906096 2.49078059 0 0 Z " fill="#DAA450" transform="translate(824,355)"/>
<path d="M0 0 C-6.40380494 4.61669659 -11.06189166 5.15891905 -18.8125 5.0625 C-19.50537109 5.05798828 -20.19824219 5.05347656 -20.91210938 5.04882812 C-22.60811068 5.03713156 -24.30406703 5.01919924 -26 5 C-26 4.67 -26 4.34 -26 4 C-24.75863281 3.80664062 -23.51726563 3.61328125 -22.23828125 3.4140625 C-20.59630539 3.15134636 -18.95438096 2.88830859 -17.3125 2.625 C-16.49587891 2.49867188 -15.67925781 2.37234375 -14.83789062 2.2421875 C-11.39952456 1.68536709 -8.3494927 1.14055172 -5.10546875 -0.1640625 C-3 -1 -3 -1 0 0 Z " fill="#FDEECC" transform="translate(776,579)"/>
<path d="M0 0 C0.66 0 1.32 0 2 0 C2 0.99 2 1.98 2 3 C2.99 2.67 3.98 2.34 5 2 C5.33 1.34 5.66 0.68 6 0 C6.66 0.33 7.32 0.66 8 1 C7.34 2.65 6.68 4.3 6 6 C7.65 6.33 9.3 6.66 11 7 C11 7.99 11 8.98 11 10 C5.91061189 8.40956621 2.12543357 5.2553049 -2 2 C-1.34 1.34 -0.68 0.68 0 0 Z " fill="#F5B65B" transform="translate(626,550)"/>
<path d="M0 0 C2.5 1.3125 2.5 1.3125 5 3 C5 6 5 6 2.75 8.5625 C0.48202476 10.57275078 -1.23189141 11.87225206 -4 13 C-3.125 8.25 -3.125 8.25 -2 6 C-1.34 6 -0.68 6 0 6 C0 4.02 0 2.04 0 0 Z " fill="#F2B552" transform="translate(864,514)"/>
<path d="M0 0 C0.66 0 1.32 0 2 0 C2.16435547 1.26457031 2.16435547 1.26457031 2.33203125 2.5546875 C2.49058594 3.65039062 2.64914062 4.74609375 2.8125 5.875 C2.96332031 6.96554687 3.11414063 8.05609375 3.26953125 9.1796875 C3.74665741 12.31238846 3.74665741 12.31238846 7 14 C9.32387947 14.39387788 11.65793749 14.73486085 14 15 C14 15.33 14 15.66 14 16 C4.32258065 16.16129032 4.32258065 16.16129032 2 15 C-0.89257512 10.51650857 -0.17931081 5.13028158 0 0 Z " fill="#E0A953" transform="translate(641,504)"/>
<path d="M0 0 C0.61875 0.350625 1.2375 0.70125 1.875 1.0625 C2.57625 1.371875 3.2775 1.68125 4 2 C4.66 1.67 5.32 1.34 6 1 C6.66 1.33 7.32 1.66 8 2 C8 4.64 8 7.28 8 10 C8.66 10 9.32 10 10 10 C9.67 10.99 9.34 11.98 9 13 C7.4941255 11.21326795 5.9954515 9.42046492 4.5 7.625 C3.6646875 6.62726563 2.829375 5.62953125 1.96875 4.6015625 C0 2 0 2 0 0 Z " fill="#EAA94A" transform="translate(854,456)"/>
<path d="M0 0 C0.66 0 1.32 0 2 0 C2.26554688 0.81984375 2.53109375 1.6396875 2.8046875 2.484375 C3.15789063 3.56203125 3.51109375 4.6396875 3.875 5.75 C4.22304688 6.81734375 4.57109375 7.8846875 4.9296875 8.984375 C5.8942255 11.91480648 5.8942255 11.91480648 7.1328125 14.203125 C8 16 8 16 8 19 C8.66 19 9.32 19 10 19 C10 20.65 10 22.3 10 24 C7.21332522 20.64597825 5.58593366 17.1229103 3.875 13.125 C3.35679687 11.93132812 2.83859375 10.73765625 2.3046875 9.5078125 C1.10806445 6.29054455 0.42566032 3.39490062 0 0 Z " fill="#E4A852" transform="translate(833,414)"/>
<path d="M0 0 C1.98 1.32 3.96 2.64 6 4 C4 7 4 7 1.6171875 7.51171875 C0.71226562 7.56972656 -0.19265625 7.62773437 -1.125 7.6875 C-2.03507813 7.75324219 -2.94515625 7.81898438 -3.8828125 7.88671875 C-4.93082031 7.94279297 -4.93082031 7.94279297 -6 8 C-5.195625 7.236875 -4.39125 6.47375 -3.5625 5.6875 C-0.83200976 3.20569102 -0.83200976 3.20569102 0 0 Z " fill="#F1AA49" transform="translate(974,263)"/>
<path d="M0 0 C3.33727786 1.17255709 5.77437487 2.18868404 8 5 C8 5.66 8 6.32 8 7 C9.98 6.67 11.96 6.34 14 6 C13.67 7.98 13.34 9.96 13 12 C9.34435261 10.46563424 7.01301377 8.25017578 4.25 5.4375 C3.45078125 4.63183594 2.6515625 3.82617188 1.828125 2.99609375 C0 1 0 1 0 0 Z " fill="#D39C47" transform="translate(868,474)"/>
<path d="M0 0 C0 4.90312435 -3.70199631 7.61341357 -7 11 C-8.62541044 12.38332804 -10.27385413 13.74462118 -12 15 C-12.66 14.67 -13.32 14.34 -14 14 C-12.60919892 12.41224451 -11.21211596 10.82999061 -9.8125 9.25 C-8.64654297 7.92742187 -8.64654297 7.92742187 -7.45703125 6.578125 C-5.11544754 4.12113732 -2.69841735 2.05137234 0 0 Z " fill="#D69D4C" transform="translate(777,232)"/>
<path d="M0 0 C0.99 0.33 1.98 0.66 3 1 C0.87885041 2.50571746 -1.24653615 4.00468679 -3.375 5.5 C-3.97828125 5.92925781 -4.5815625 6.35851562 -5.203125 6.80078125 C-9.7734375 10 -9.7734375 10 -12 10 C-11.625 8.0625 -11.625 8.0625 -11 6 C-10.34 5.67 -9.68 5.34 -9 5 C-8.54625 4.46375 -8.0925 3.9275 -7.625 3.375 C-6.820625 2.694375 -6.820625 2.694375 -6 2 C-3.8125 2.3125 -3.8125 2.3125 -2 3 C-2 2.34 -2 1.68 -2 1 C-1.34 0.67 -0.68 0.34 0 0 Z " fill="#F4B456" transform="translate(829,550)"/>
<path d="M0 0 C0.99 0 1.98 0 3 0 C3.33 0.66 3.66 1.32 4 2 C6.69797102 2.63860769 9.33366623 3.16825242 12.0625 3.625 C12.82111328 3.7590625 13.57972656 3.893125 14.36132812 4.03125 C16.23952258 4.36200122 18.11960338 4.68200734 20 5 C20 5.33 20 5.66 20 6 C11.69914269 6.51345509 5.48064025 5.70721995 -2 2 C-1.34 1.34 -0.68 0.68 0 0 Z " fill="#D69C4A" transform="translate(938,524)"/>
<path d="M0 0 C0.33 0 0.66 0 1 0 C1.08172102 4.16777219 0.98621003 7.94558101 0 12 C-0.103125 12.721875 -0.20625 13.44375 -0.3125 14.1875 C-1.25733891 16.67843895 -2.64610686 16.93346558 -5 18 C-3.36959185 11.98922864 -1.72852643 5.98336072 0 0 Z " fill="#311C07" transform="translate(980,486)"/>
<path d="M0 0 C0.66 0 1.32 0 2 0 C1.25403037 7.4596963 -0.36746129 14.68951218 -2 22 C-2.33 22 -2.66 22 -3 22 C-2.88482579 19.64499052 -2.75812022 17.29150927 -2.625 14.9375 C-2.55539062 13.62652344 -2.48578125 12.31554687 -2.4140625 10.96484375 C-2.00194564 7.01863043 -1.20243433 3.75882927 0 0 Z " fill="#DDA24B" transform="translate(983,464)"/>
<path d="M0 0 C6.31718671 0.15792967 9.80727176 3.67506862 14 8 C14.99 9.485 14.99 9.485 16 11 C12.10022964 11 11.36311158 9.80864575 8.5625 7.1875 C5.80082153 4.62208295 3.05751943 2.20782154 0 0 Z " fill="#D8A14C" transform="translate(715,471)"/>
<path d="M0 0 C1.258125 -0.04125 2.51625 -0.0825 3.8125 -0.125 C4.52019531 -0.14820313 5.22789062 -0.17140625 5.95703125 -0.1953125 C8 0 8 0 11 2 C13.27538323 2.66613335 13.27538323 2.66613335 15.6875 3.125 C16.49574219 3.29257812 17.30398438 3.46015625 18.13671875 3.6328125 C18.75160156 3.75398437 19.36648438 3.87515625 20 4 C16.07118237 5.47083876 12.88681585 4.57110454 8.875 3.6875 C7.63492188 3.42324219 6.39484375 3.15898438 5.1171875 2.88671875 C2 2 2 2 0 0 Z " fill="#F1BC6F" transform="translate(678,578)"/>
<path d="M0 0 C2.475 0.99 2.475 0.99 5 2 C5 2.99 5 3.98 5 5 C6.32 4.34 7.64 3.68 9 3 C8.25 7.75 8.25 7.75 6 10 C4.99723227 8.52270825 3.99785546 7.04311423 3 5.5625 C2.443125 4.73878906 1.88625 3.91507812 1.3125 3.06640625 C0 1 0 1 0 0 Z " fill="#EAAB47" transform="translate(847,446)"/>
<path d="M0 0 C0.33 0 0.66 0 1 0 C1 8.25 1 16.5 1 25 C0.67 25 0.34 25 0 25 C-0.02505615 24.44014404 -0.0501123 23.88028809 -0.07592773 23.3034668 C-0.19203745 20.76458695 -0.3146958 18.22606447 -0.4375 15.6875 C-0.47681641 14.80642578 -0.51613281 13.92535156 -0.55664062 13.01757812 C-0.59853516 12.17001953 -0.64042969 11.32246094 -0.68359375 10.44921875 C-0.73858032 9.27879028 -0.73858032 9.27879028 -0.79467773 8.0847168 C-0.94125263 5.80670899 -0.94125263 5.80670899 -2 3 C-1.34 2.01 -0.68 1.02 0 0 Z " fill="#373737" transform="translate(245,797)"/>
<path d="M0 0 C0 3.81133869 -1.2094518 5.01854683 -3.4375 8.0625 C-5.91762465 11.41060375 -5.91762465 11.41060375 -8 15 C-8.66 15 -9.32 15 -10 15 C-8.65794923 11.19639883 -6.95995677 8.38858921 -4.4375 5.25 C-3.81746094 4.47140625 -3.19742188 3.6928125 -2.55859375 2.890625 C-1 1 -1 1 0 0 Z " fill="#351E07" transform="translate(657,480)"/>
<path d="M0 0 C0.33 0 0.66 0 1 0 C1.125 6.625 1.125 6.625 0 10 C-0.22179785 11.89212737 -0.40614015 13.78884472 -0.5625 15.6875 C-0.64628906 16.68136719 -0.73007812 17.67523438 -0.81640625 18.69921875 C-0.87699219 19.45847656 -0.93757812 20.21773438 -1 21 C-1.33 21 -1.66 21 -2 21 C-3.70159453 6.21867882 -3.70159453 6.21867882 0 0 Z " fill="#FFFAE5" transform="translate(559,374)"/>
<path d="M0 0 C0.33 0.66 0.66 1.32 1 2 C-5.6 1.34 -12.2 0.68 -19 0 C-19 -0.33 -19 -0.66 -19 -1 C-12.35554131 -2.07168689 -6.45767099 -2.19099551 0 0 Z " fill="#351D07" transform="translate(859,221)"/>
<path d="M0 0 C3.63559661 3.43361902 6.36113346 6.7973607 9 11 C8.01 11 7.02 11 6 11 C6 10.34 6 9.68 6 9 C5.38125 8.814375 4.7625 8.62875 4.125 8.4375 C0.94397134 6.28562767 0.80548053 3.62466237 0 0 Z M2 9 C4 10 4 10 4 10 Z " fill="#E0A64B" transform="translate(831,479)"/>
<path d="M0 0 C0 0.66 0 1.32 0 2 C-0.66 2 -1.32 2 -2 2 C-2 2.66 -2 3.32 -2 4 C-7.45769231 7.10096154 -7.45769231 7.10096154 -10.203125 6.58984375 C-10.79609375 6.39519531 -11.3890625 6.20054687 -12 6 C-10.37829621 4.99466333 -8.75252763 3.99588093 -7.125 3 C-5.76761719 2.1646875 -5.76761719 2.1646875 -4.3828125 1.3125 C-2 0 -2 0 0 0 Z " fill="#DFA64F" transform="translate(790,225)"/>
<path d="M0 0 C1.38545753 3.84849313 0.91355473 7.06468732 0 11 C-2.0625 13.4375 -2.0625 13.4375 -4 15 C-2.07289294 4.44191344 -2.07289294 4.44191344 0 0 Z " fill="#F4BA69" transform="translate(571,334)"/>
<path d="M0 0 C1.96080624 0.78552177 3.91857816 1.57862123 5.875 2.375 C7.51082031 3.03628906 7.51082031 3.03628906 9.1796875 3.7109375 C12 5 12 5 14 7 C12.35 7 10.7 7 9 7 C9 6.34 9 5.68 9 5 C7.88625 4.9175 6.7725 4.835 5.625 4.75 C4.42875 4.5025 3.2325 4.255 2 4 C0.7734375 1.953125 0.7734375 1.953125 0 0 Z " fill="#E0A84D" transform="translate(946,248)"/>
<path d="M0 0 C0.66 0.33 1.32 0.66 2 1 C0.35 4.3 -1.3 7.6 -3 11 C-3.66 9.68 -4.32 8.36 -5 7 C-4.125 4.75 -4.125 4.75 -3 3 C-2.01 3 -1.02 3 0 3 C0 2.01 0 1.02 0 0 Z " fill="#DFA34C" transform="translate(971,509)"/>
<path d="M0 0 C2.92879371 0.62759865 5.36095629 1.58622659 8 3 C8 4.65 8 6.3 8 8 C6.85073734 7.04578192 5.70569459 6.08647955 4.5625 5.125 C3.92441406 4.59132813 3.28632812 4.05765625 2.62890625 3.5078125 C1 2 1 2 0 0 Z " fill="#301906" transform="translate(844,494)"/>
<path d="M0 0 C1.22589844 0.01353516 1.22589844 0.01353516 2.4765625 0.02734375 C3.41628906 0.04474609 3.41628906 0.04474609 4.375 0.0625 C4.375 0.3925 4.375 0.7225 4.375 1.0625 C3.281875 1.18625 2.18875 1.31 1.0625 1.4375 C-2.69881802 1.81714801 -2.69881802 1.81714801 -5.625 4.0625 C-7.28049531 4.44749891 -8.9472433 4.79043135 -10.625 5.0625 C-6.95332865 1.26843961 -5.29099668 -0.07558567 0 0 Z " fill="#452707" transform="translate(809.625,346.9375)"/>
<path d="M0 0 C3.96 1.98 7.92 3.96 12 6 C7.23374833 7.19156292 6.12120649 6.3415946 2 4 C2 3.34 2 2.68 2 2 C1.34 2 0.68 2 0 2 C0 1.34 0 0.68 0 0 Z " fill="#FFF4D4" transform="translate(634,559)"/>
<path d="M0 0 C1.32 0.33 2.64 0.66 4 1 C1.36 2.98 -1.28 4.96 -4 7 C-4.33 6.34 -4.66 5.68 -5 5 C-4.67 4.34 -4.34 3.68 -4 3 C-3.01 3 -2.02 3 -1 3 C-0.67 2.01 -0.34 1.02 0 0 Z " fill="#F1B75E" transform="translate(849,534)"/>
<path d="M0 0 C2.97 0 5.94 0 9 0 C8.01 0.495 8.01 0.495 7 1 C6.34786708 3.02463255 6.34786708 3.02463255 6 5 C3.98079663 3.69593116 1.98075027 2.36176581 0 1 C0 0.67 0 0.34 0 0 Z " fill="#DFA247" transform="translate(905,506)"/>
<path d="M0 0 C1.31611677 0.95336021 2.62778961 1.91285774 3.9375 2.875 C4.66839844 3.40867187 5.39929688 3.94234375 6.15234375 4.4921875 C8 6 8 6 9 8 C5.81390075 7.64598897 4.20933322 7.16972964 1.6875 5.125 C0 3 0 3 0 0 Z " fill="#1A0801" transform="translate(873,480)"/>
<path d="M0 0 C2.91488977 2.6234008 4.88503898 5.71816394 7 9 C6.67 9.66 6.34 10.32 6 11 C4.0625 10.3125 4.0625 10.3125 2 9 C1.3125 6.625 1.3125 6.625 1 4 C0.67516582 2.66457061 0.3449145 1.33038449 0 0 Z " fill="#DCA44C" transform="translate(818,460)"/>
<path d="M0 0 C0.33 0 0.66 0 1 0 C1.0810206 2.10353495 1.13919907 4.20795952 1.1875 6.3125 C1.22230469 7.48425781 1.25710938 8.65601563 1.29296875 9.86328125 C1 13 1 13 -2 16 C-1.34 10.72 -0.68 5.44 0 0 Z " fill="#381E05" transform="translate(986,456)"/>
<path d="M0 0 C0.99 0 1.98 0 3 0 C3 0.66 3 1.32 3 2 C4.65 2.33 6.3 2.66 8 3 C8 3.99 8 4.98 8 6 C5.0280615 4.87548273 2.66559313 3.77706209 0 2 C0 1.34 0 0.68 0 0 Z " fill="#DEA24A" transform="translate(920,515)"/>
<path d="M0 0 C4.20626034 1.50223584 5.73900021 4.28550034 8 8 C7.01 8 6.02 8 5 8 C0 2.65116279 0 2.65116279 0 0 Z " fill="#E1A550" transform="translate(840,491)"/>
<path d="M0 0 C3.375 0.25 3.375 0.25 7 1 C8.4375 3.0625 8.4375 3.0625 9 5 C5.22454612 3.90931332 2.52956528 3.0916909 0 0 Z " fill="#F1BB6A" transform="translate(637,560)"/>
<path d="M0 0 C1.98 0.66 3.96 1.32 6 2 C6 2.66 6 3.32 6 4 C6.66 4 7.32 4 8 4 C8.33 5.32 8.66 6.64 9 8 C7.68388323 7.04663979 6.37221039 6.08714226 5.0625 5.125 C4.33160156 4.59132813 3.60070312 4.05765625 2.84765625 3.5078125 C1 2 1 2 0 0 Z " fill="#261108" transform="translate(862,511)"/>
<path d="M0 0 C0 0.99 0 1.98 0 3 C-5.625 6 -5.625 6 -9 6 C-7.8803014 4.99406757 -6.7540588 3.9954151 -5.625 3 C-4.68527344 2.1646875 -4.68527344 2.1646875 -3.7265625 1.3125 C-2 0 -2 0 0 0 Z " fill="#FDEAC6" transform="translate(851,537)"/>
<path d="M0 0 C-2 2 -2 2 -4.1640625 2.1953125 C-5.38222656 2.16050781 -5.38222656 2.16050781 -6.625 2.125 C-7.44226563 2.10695313 -8.25953125 2.08890625 -9.1015625 2.0703125 C-9.72804688 2.04710937 -10.35453125 2.02390625 -11 2 C-7.00042393 -0.06874624 -4.43559483 -1.37656391 0 0 Z " fill="#D59C4A" transform="translate(668,517)"/>
<path d="M0 0 C-6.75 4 -6.75 4 -9 4 C-9 3.01 -9 2.02 -9 1 C-3.375 -1.125 -3.375 -1.125 0 0 Z " fill="#EFB762" transform="translate(809,565)"/>
<path d="M0 0 C2.71843438 3.62457917 3.41789544 4.80884715 4 9 C3.01 9.33 2.02 9.66 1 10 C0.67 6.7 0.34 3.4 0 0 Z " fill="#CB9343" transform="translate(806,434)"/>
<path d="M0 0 C0.99 0.33 1.98 0.66 3 1 C1.7260411 3.03833424 0.38938077 5.03852126 -1 7 C-1.66 7 -2.32 7 -3 7 C-1.125 1.125 -1.125 1.125 0 0 Z " fill="#1D0C01" transform="translate(798,352)"/>
<path d="M0 0 C0.33 0 0.66 0 1 0 C1.08159574 4.16138263 0.98248524 7.9472484 0 12 C-0.33 12 -0.66 12 -1 12 C-1.92470553 7.28400182 -2.22923777 4.32734391 0 0 Z " fill="#626262" transform="translate(777,755)"/>
<path d="M0 0 C0 0.66 0 1.32 0 2 C-0.99 2 -1.98 2 -3 2 C-3.33 2.99 -3.66 3.98 -4 5 C-5.65 5 -7.3 5 -9 5 C-2.87096774 0 -2.87096774 0 0 0 Z " fill="#FEF4D5" transform="translate(807,566)"/>
<path d="M0 0 C2.5 1.3125 2.5 1.3125 5 3 C5 3.99 5 4.98 5 6 C4.01 6.33 3.02 6.66 2 7 C2 5.35 2 3.7 2 2 C1.34 2 0.68 2 0 2 C0 1.34 0 0.68 0 0 Z " fill="#DBA95C" transform="translate(864,514)"/>
<path d="M0 0 C0.66 0 1.32 0 2 0 C2 1.32 2 2.64 2 4 C0.02 4.33 -1.96 4.66 -4 5 C-3.34 4.67 -2.68 4.34 -2 4 C-0.86649466 1.98330173 -0.86649466 1.98330173 0 0 Z " fill="#1D0A01" transform="translate(744,516)"/>
<path d="M0 0 C3.3 0.33 6.6 0.66 10 1 C10 1.33 10 1.66 10 2 C7.02148438 2.29296875 7.02148438 2.29296875 4.04296875 2.5859375 C1.70011858 2.92665391 1.70011858 2.92665391 -1 5 C-0.67 3.35 -0.34 1.7 0 0 Z " fill="#DBAB60" transform="translate(614,234)"/>
</svg>
